<?xml version="1.0" standalone="no"?><!DOCTYPE svg PUBLIC "-//W3C//DTD SVG 1.1//EN" "http://www.w3.org/Graphics/SVG/1.1/DTD/svg11.dtd"><svg t="1524710250315" class="icon" style="" viewBox="0 0 1024 1024" version="1.1" xmlns="http://www.w3.org/2000/svg" p-id="2730" xmlns:xlink="http://www.w3.org/1999/xlink" width="200" height="200"><defs><style type="text/css"></style></defs><path d="M758.518519 940.562963H202.903704c-60.681481 0-111.881481-49.303704-111.881482-111.881482V271.17037c0-62.577778 51.2-115.674074 111.881482-115.674074h373.57037c11.377778 0 18.962963 7.585185 18.962963 18.962963s-7.585185 18.962963-18.962963 18.962963H202.903704c-39.822222 0-73.955556 36.02963-73.955556 77.748148v555.614815c0 39.822222 32.237037 73.955556 73.955556 73.955556H758.518519c41.718519 0 77.748148-34.133333 77.748148-73.955556V455.111111c0-11.377778 7.585185-18.962963 18.962963-18.962963s18.962963 7.585185 18.962963 18.962963v373.57037c0 60.681481-53.096296 111.881481-115.674074 111.881482z" fill="" p-id="2731"></path><path d="M314.785185 771.792593c-9.481481 0-20.859259-3.792593-28.444444-11.377778-13.274074-11.377778-17.066667-32.237037-11.377778-51.2 108.088889-223.762963 113.777778-231.348148 115.674074-233.244445l360.296296-360.296296c24.651852-24.651852 68.266667-24.651852 92.918519 0l81.540741 81.540741c24.651852 24.651852 24.651852 66.37037 0 92.918518l-360.296297 360.296297c-1.896296 1.896296-9.481481 9.481481-231.348148 115.674074-3.792593 3.792593-11.377778 5.688889-18.962963 5.688889z m106.192593-269.274074c-9.481481 15.17037-72.059259 144.118519-109.985185 223.762962-1.896296 3.792593 0 5.688889 1.896296 7.585186 1.896296 1.896296 3.792593 0 5.688889 0 77.748148-37.925926 206.696296-100.503704 221.866666-109.985186L898.844444 265.481481c11.377778-11.377778 11.377778-28.444444 0-37.925925l-81.54074-81.540741c-9.481481-9.481481-28.444444-9.481481-37.925926 0L420.977778 502.518519z" fill="" p-id="2732"></path><path d="M851.437037 356.503704c-5.688889 0-9.481481-1.896296-13.274074-5.688889l-144.118519-144.118519c-7.585185-7.585185-7.585185-18.962963 0-26.548148s18.962963-7.585185 26.548149 0l144.118518 144.118519c7.585185 7.585185 7.585185 18.962963 0 26.548148-3.792593 3.792593-7.585185 5.688889-13.274074 5.688889zM544.237037 659.911111c-5.688889 0-9.481481-1.896296-13.274074-5.688889l-138.42963-138.429629c-7.585185-7.585185-7.585185-18.962963 0-26.548149s18.962963-7.585185 26.548148 0l138.42963 138.42963c7.585185 7.585185 7.585185 18.962963 0 26.548148-3.792593 3.792593-9.481481 5.688889-13.274074 5.688889z" fill="" p-id="2733"></path></svg>